<mxfile host="app.diagrams.net" modified="2021-04-17T06:47:26.079Z" agent="5.0 (Windows NT 10.0; Win64; x64) AppleWebKit/537.36 (KHTML, like Gecko) Chrome/89.0.4389.128 Safari/537.36" etag="h9wkc5XudKZWOuKKy5Qu" version="14.6.0" type="github">
  <diagram id="2Q7YqtdaMWdOE0RqVjaY" name="Page-1">
    <mxGraphModel dx="3074" dy="1196" grid="0" gridSize="10" guides="1" tooltips="1" connect="1" arrows="1" fold="1" page="0" pageScale="1" pageWidth="827" pageHeight="1169" math="0" shadow="0">
      <root>
        <mxCell id="0" />
        <mxCell id="1" parent="0" />
        <mxCell id="YbGcfCplT9FmwaIEXrlA-1" value="" style="edgeStyle=orthogonalEdgeStyle;rounded=0;orthogonalLoop=1;jettySize=auto;html=1;fontSize=20;entryX=0.5;entryY=0;entryDx=0;entryDy=0;" edge="1" parent="1" source="YbGcfCplT9FmwaIEXrlA-2" target="YbGcfCplT9FmwaIEXrlA-4">
          <mxGeometry relative="1" as="geometry" />
        </mxCell>
        <mxCell id="YbGcfCplT9FmwaIEXrlA-2" value="&lt;font style=&quot;font-size: 20px;&quot;&gt;开始&lt;/font&gt;" style="strokeWidth=1;html=1;shape=mxgraph.flowchart.terminator;whiteSpace=wrap;fontSize=20;" vertex="1" parent="1">
          <mxGeometry x="-485.63" y="-84" width="77" height="44" as="geometry" />
        </mxCell>
        <mxCell id="YbGcfCplT9FmwaIEXrlA-26" value="" style="edgeStyle=orthogonalEdgeStyle;rounded=0;orthogonalLoop=1;jettySize=auto;html=1;fontSize=20;" edge="1" parent="1" source="YbGcfCplT9FmwaIEXrlA-4" target="YbGcfCplT9FmwaIEXrlA-25">
          <mxGeometry relative="1" as="geometry" />
        </mxCell>
        <mxCell id="YbGcfCplT9FmwaIEXrlA-4" value="&lt;font style=&quot;font-size: 20px;&quot;&gt;等待数据帧到达&lt;/font&gt;" style="rounded=0;whiteSpace=wrap;html=1;strokeWidth=1;fontSize=20;" vertex="1" parent="1">
          <mxGeometry x="-590.13" y="-16.25" width="287" height="50.25" as="geometry" />
        </mxCell>
        <mxCell id="YbGcfCplT9FmwaIEXrlA-6" value="Y" style="edgeStyle=orthogonalEdgeStyle;rounded=0;orthogonalLoop=1;jettySize=auto;html=1;fontSize=20;" edge="1" parent="1" source="YbGcfCplT9FmwaIEXrlA-7" target="YbGcfCplT9FmwaIEXrlA-14">
          <mxGeometry x="-0.296" relative="1" as="geometry">
            <mxPoint as="offset" />
          </mxGeometry>
        </mxCell>
        <mxCell id="YbGcfCplT9FmwaIEXrlA-30" value="N" style="edgeStyle=orthogonalEdgeStyle;rounded=0;orthogonalLoop=1;jettySize=auto;html=1;fontSize=20;" edge="1" parent="1" source="YbGcfCplT9FmwaIEXrlA-7" target="YbGcfCplT9FmwaIEXrlA-9">
          <mxGeometry x="-0.5442" relative="1" as="geometry">
            <mxPoint as="offset" />
          </mxGeometry>
        </mxCell>
        <mxCell id="YbGcfCplT9FmwaIEXrlA-7" value="流门控状态为OPEN" style="rhombus;whiteSpace=wrap;html=1;strokeWidth=1;fontSize=20;" vertex="1" parent="1">
          <mxGeometry x="-576.1899999999999" y="158.88" width="257.25" height="80.25" as="geometry" />
        </mxCell>
        <mxCell id="YbGcfCplT9FmwaIEXrlA-8" value="" style="edgeStyle=orthogonalEdgeStyle;rounded=0;orthogonalLoop=1;jettySize=auto;html=1;fontSize=20;" edge="1" parent="1" source="YbGcfCplT9FmwaIEXrlA-9" target="YbGcfCplT9FmwaIEXrlA-11">
          <mxGeometry relative="1" as="geometry" />
        </mxCell>
        <mxCell id="YbGcfCplT9FmwaIEXrlA-9" value="丢弃数据帧" style="rounded=0;whiteSpace=wrap;html=1;strokeWidth=1;fontSize=20;" vertex="1" parent="1">
          <mxGeometry x="-269" y="171.51" width="288" height="54.99" as="geometry" />
        </mxCell>
        <mxCell id="YbGcfCplT9FmwaIEXrlA-40" value="" style="edgeStyle=orthogonalEdgeStyle;rounded=0;orthogonalLoop=1;jettySize=auto;html=1;entryX=0.5;entryY=0;entryDx=0;entryDy=0;fontSize=20;" edge="1" parent="1" source="YbGcfCplT9FmwaIEXrlA-11" target="YbGcfCplT9FmwaIEXrlA-31">
          <mxGeometry relative="1" as="geometry">
            <mxPoint x="-126" y="483.5" as="targetPoint" />
          </mxGeometry>
        </mxCell>
        <mxCell id="YbGcfCplT9FmwaIEXrlA-11" value="&lt;span lang=&quot;EN-US&quot; style=&quot;font-size: 20px; font-family: &amp;quot;times new roman&amp;quot;, serif;&quot;&gt;NotPassingFrameCount&lt;/span&gt;&lt;span style=&quot;font-size: 20px;&quot;&gt;计数器加一&lt;/span&gt;" style="rounded=0;whiteSpace=wrap;html=1;strokeWidth=1;fontSize=20;" vertex="1" parent="1">
          <mxGeometry x="-270" y="361.5" width="288" height="68.5" as="geometry" />
        </mxCell>
        <mxCell id="YbGcfCplT9FmwaIEXrlA-28" value="N" style="edgeStyle=orthogonalEdgeStyle;rounded=0;orthogonalLoop=1;jettySize=auto;html=1;fontSize=20;" edge="1" parent="1" source="YbGcfCplT9FmwaIEXrlA-14" target="YbGcfCplT9FmwaIEXrlA-23">
          <mxGeometry x="-0.538" relative="1" as="geometry">
            <mxPoint as="offset" />
          </mxGeometry>
        </mxCell>
        <mxCell id="YbGcfCplT9FmwaIEXrlA-36" value="Y" style="edgeStyle=orthogonalEdgeStyle;rounded=0;orthogonalLoop=1;jettySize=auto;html=1;entryX=0.5;entryY=0;entryDx=0;entryDy=0;fontSize=20;" edge="1" parent="1" source="YbGcfCplT9FmwaIEXrlA-14" target="YbGcfCplT9FmwaIEXrlA-29">
          <mxGeometry x="-0.8761" relative="1" as="geometry">
            <mxPoint x="-741.385" y="327.0999999999999" as="targetPoint" />
            <mxPoint as="offset" />
          </mxGeometry>
        </mxCell>
        <mxCell id="YbGcfCplT9FmwaIEXrlA-14" value="流门控内部优先级是否&lt;br style=&quot;font-size: 20px;&quot;&gt;为NULL" style="rhombus;whiteSpace=wrap;html=1;strokeWidth=1;fontSize=20;" vertex="1" parent="1">
          <mxGeometry x="-584.26" y="281" width="274.25" height="92.25" as="geometry" />
        </mxCell>
        <mxCell id="YbGcfCplT9FmwaIEXrlA-17" value="" style="edgeStyle=orthogonalEdgeStyle;rounded=0;orthogonalLoop=1;jettySize=auto;html=1;fontSize=20;" edge="1" parent="1" source="YbGcfCplT9FmwaIEXrlA-18" target="YbGcfCplT9FmwaIEXrlA-24">
          <mxGeometry relative="1" as="geometry" />
        </mxCell>
        <mxCell id="YbGcfCplT9FmwaIEXrlA-18" value="&lt;span lang=&quot;EN-US&quot; style=&quot;font-size: 20px; font-family: &amp;quot;times new roman&amp;quot;, serif;&quot;&gt;PassingFrameCount&lt;/span&gt;计数器加一" style="rounded=0;whiteSpace=wrap;html=1;strokeWidth=1;fontSize=20;" vertex="1" parent="1">
          <mxGeometry x="-591.56" y="512" width="288" height="56" as="geometry" />
        </mxCell>
        <mxCell id="YbGcfCplT9FmwaIEXrlA-34" value="" style="edgeStyle=orthogonalEdgeStyle;rounded=0;orthogonalLoop=1;jettySize=auto;html=1;fontSize=20;" edge="1" parent="1" source="YbGcfCplT9FmwaIEXrlA-23" target="YbGcfCplT9FmwaIEXrlA-18">
          <mxGeometry relative="1" as="geometry" />
        </mxCell>
        <mxCell id="YbGcfCplT9FmwaIEXrlA-23" value="为数据帧分配内部优先级" style="rounded=0;whiteSpace=wrap;html=1;strokeWidth=1;fontSize=20;" vertex="1" parent="1">
          <mxGeometry x="-591" y="415" width="288" height="63" as="geometry" />
        </mxCell>
        <mxCell id="YbGcfCplT9FmwaIEXrlA-33" value="" style="edgeStyle=orthogonalEdgeStyle;rounded=0;orthogonalLoop=1;jettySize=auto;html=1;fontSize=20;" edge="1" parent="1" source="YbGcfCplT9FmwaIEXrlA-24" target="YbGcfCplT9FmwaIEXrlA-31">
          <mxGeometry relative="1" as="geometry" />
        </mxCell>
        <mxCell id="YbGcfCplT9FmwaIEXrlA-24" value="将数据帧传入下一模块" style="rounded=0;whiteSpace=wrap;html=1;strokeWidth=1;fontSize=20;" vertex="1" parent="1">
          <mxGeometry x="-591.06" y="605" width="287" height="52" as="geometry" />
        </mxCell>
        <mxCell id="YbGcfCplT9FmwaIEXrlA-27" value="" style="edgeStyle=orthogonalEdgeStyle;rounded=0;orthogonalLoop=1;jettySize=auto;html=1;fontSize=20;" edge="1" parent="1" source="YbGcfCplT9FmwaIEXrlA-25" target="YbGcfCplT9FmwaIEXrlA-7">
          <mxGeometry relative="1" as="geometry" />
        </mxCell>
        <mxCell id="YbGcfCplT9FmwaIEXrlA-25" value="获取流状态信息表中的流门控ID" style="rounded=0;whiteSpace=wrap;html=1;strokeWidth=1;fontSize=20;" vertex="1" parent="1">
          <mxGeometry x="-590.13" y="67" width="285.13" height="63" as="geometry" />
        </mxCell>
        <mxCell id="YbGcfCplT9FmwaIEXrlA-38" value="" style="edgeStyle=orthogonalEdgeStyle;rounded=0;orthogonalLoop=1;jettySize=auto;html=1;entryX=0;entryY=0.5;entryDx=0;entryDy=0;fontSize=20;" edge="1" parent="1" source="YbGcfCplT9FmwaIEXrlA-29" target="YbGcfCplT9FmwaIEXrlA-18">
          <mxGeometry relative="1" as="geometry">
            <mxPoint x="-768.5" y="560" as="targetPoint" />
            <Array as="points">
              <mxPoint x="-768" y="540" />
            </Array>
          </mxGeometry>
        </mxCell>
        <mxCell id="YbGcfCplT9FmwaIEXrlA-29" value="&lt;font style=&quot;font-size: 20px&quot;&gt;将数据帧内部优先级设置为数据帧的外部优先级&lt;/font&gt;" style="rounded=0;whiteSpace=wrap;html=1;strokeWidth=1;fontSize=20;" vertex="1" parent="1">
          <mxGeometry x="-911" y="414" width="285" height="64" as="geometry" />
        </mxCell>
        <mxCell id="YbGcfCplT9FmwaIEXrlA-31" value="等待下一数据帧到达" style="rounded=0;whiteSpace=wrap;html=1;strokeWidth=1;fontSize=20;" vertex="1" parent="1">
          <mxGeometry x="-269" y="605" width="287" height="52" as="geometry" />
        </mxCell>
      </root>
    </mxGraphModel>
  </diagram>
</mxfile>
